<mxfile host="app.diagrams.net" modified="2024-05-07T15:02:50.627Z" agent="Mozilla/5.0 (Windows NT 10.0; Win64; x64) AppleWebKit/537.36 (KHTML, like Gecko) Chrome/124.0.0.0 Safari/537.36" etag="TkgGz9JiDEGUm9sZYwlS" version="24.3.1" type="device">
  <diagram name="Page-1" id="s4sbyjbFs6MYSl9o08Po">
    <mxGraphModel dx="1323" dy="753" grid="1" gridSize="10" guides="1" tooltips="1" connect="1" arrows="1" fold="1" page="1" pageScale="1" pageWidth="850" pageHeight="1100" background="#ffffff" math="0" shadow="0">
      <root>
        <mxCell id="0" />
        <mxCell id="1" parent="0" />
        <mxCell id="L9C_kSaaTyOEswqFfBs4-30" style="edgeStyle=orthogonalEdgeStyle;rounded=0;orthogonalLoop=1;jettySize=auto;html=1;entryX=0;entryY=0.5;entryDx=0;entryDy=0;" edge="1" parent="1" source="L9C_kSaaTyOEswqFfBs4-1" target="L9C_kSaaTyOEswqFfBs4-29">
          <mxGeometry relative="1" as="geometry" />
        </mxCell>
        <mxCell id="L9C_kSaaTyOEswqFfBs4-1" value="MOVIES" style="rounded=0;whiteSpace=wrap;html=1;" vertex="1" parent="1">
          <mxGeometry x="380" y="150" width="120" height="60" as="geometry" />
        </mxCell>
        <mxCell id="L9C_kSaaTyOEswqFfBs4-6" style="edgeStyle=orthogonalEdgeStyle;rounded=0;orthogonalLoop=1;jettySize=auto;html=1;" edge="1" parent="1" source="L9C_kSaaTyOEswqFfBs4-2" target="L9C_kSaaTyOEswqFfBs4-1">
          <mxGeometry relative="1" as="geometry" />
        </mxCell>
        <mxCell id="L9C_kSaaTyOEswqFfBs4-2" value="MOVIE ID" style="ellipse;whiteSpace=wrap;html=1;" vertex="1" parent="1">
          <mxGeometry x="450" y="280" width="120" height="80" as="geometry" />
        </mxCell>
        <mxCell id="L9C_kSaaTyOEswqFfBs4-9" style="edgeStyle=orthogonalEdgeStyle;rounded=0;orthogonalLoop=1;jettySize=auto;html=1;entryX=0.5;entryY=0;entryDx=0;entryDy=0;" edge="1" parent="1" source="L9C_kSaaTyOEswqFfBs4-3" target="L9C_kSaaTyOEswqFfBs4-1">
          <mxGeometry relative="1" as="geometry" />
        </mxCell>
        <mxCell id="L9C_kSaaTyOEswqFfBs4-3" value="MOVIE NAME" style="ellipse;whiteSpace=wrap;html=1;" vertex="1" parent="1">
          <mxGeometry x="380" y="30" width="120" height="80" as="geometry" />
        </mxCell>
        <mxCell id="L9C_kSaaTyOEswqFfBs4-8" style="edgeStyle=orthogonalEdgeStyle;rounded=0;orthogonalLoop=1;jettySize=auto;html=1;entryX=0;entryY=0.25;entryDx=0;entryDy=0;" edge="1" parent="1" source="L9C_kSaaTyOEswqFfBs4-4" target="L9C_kSaaTyOEswqFfBs4-1">
          <mxGeometry relative="1" as="geometry" />
        </mxCell>
        <mxCell id="L9C_kSaaTyOEswqFfBs4-4" value="CATEGORY ID" style="ellipse;whiteSpace=wrap;html=1;" vertex="1" parent="1">
          <mxGeometry x="200" y="90" width="120" height="80" as="geometry" />
        </mxCell>
        <mxCell id="L9C_kSaaTyOEswqFfBs4-7" style="edgeStyle=orthogonalEdgeStyle;rounded=0;orthogonalLoop=1;jettySize=auto;html=1;entryX=0;entryY=0.5;entryDx=0;entryDy=0;" edge="1" parent="1" source="L9C_kSaaTyOEswqFfBs4-5" target="L9C_kSaaTyOEswqFfBs4-1">
          <mxGeometry relative="1" as="geometry" />
        </mxCell>
        <mxCell id="L9C_kSaaTyOEswqFfBs4-5" value="MOVIE FORMAT" style="ellipse;whiteSpace=wrap;html=1;" vertex="1" parent="1">
          <mxGeometry x="230" y="240" width="120" height="80" as="geometry" />
        </mxCell>
        <mxCell id="L9C_kSaaTyOEswqFfBs4-12" value="VHS" style="ellipse;whiteSpace=wrap;html=1;" vertex="1" parent="1">
          <mxGeometry x="80" y="330" width="80" height="80" as="geometry" />
        </mxCell>
        <mxCell id="L9C_kSaaTyOEswqFfBs4-13" value="VCD" style="ellipse;whiteSpace=wrap;html=1;" vertex="1" parent="1">
          <mxGeometry x="170" y="360" width="80" height="80" as="geometry" />
        </mxCell>
        <mxCell id="L9C_kSaaTyOEswqFfBs4-14" value="DVD" style="ellipse;whiteSpace=wrap;html=1;" vertex="1" parent="1">
          <mxGeometry x="260" y="380" width="80" height="80" as="geometry" />
        </mxCell>
        <mxCell id="L9C_kSaaTyOEswqFfBs4-18" value="" style="endArrow=classic;html=1;rounded=0;exitX=0.5;exitY=0;exitDx=0;exitDy=0;entryX=0;entryY=0.5;entryDx=0;entryDy=0;" edge="1" parent="1" source="L9C_kSaaTyOEswqFfBs4-12" target="L9C_kSaaTyOEswqFfBs4-5">
          <mxGeometry width="50" height="50" relative="1" as="geometry">
            <mxPoint x="260" y="360" as="sourcePoint" />
            <mxPoint x="310" y="310" as="targetPoint" />
          </mxGeometry>
        </mxCell>
        <mxCell id="L9C_kSaaTyOEswqFfBs4-19" value="" style="endArrow=classic;html=1;rounded=0;exitX=0.7;exitY=0.017;exitDx=0;exitDy=0;exitPerimeter=0;entryX=0.35;entryY=0.967;entryDx=0;entryDy=0;entryPerimeter=0;" edge="1" parent="1" source="L9C_kSaaTyOEswqFfBs4-13" target="L9C_kSaaTyOEswqFfBs4-5">
          <mxGeometry width="50" height="50" relative="1" as="geometry">
            <mxPoint x="260" y="360" as="sourcePoint" />
            <mxPoint x="310" y="310" as="targetPoint" />
          </mxGeometry>
        </mxCell>
        <mxCell id="L9C_kSaaTyOEswqFfBs4-20" value="" style="endArrow=classic;html=1;rounded=0;exitX=0.5;exitY=0;exitDx=0;exitDy=0;" edge="1" parent="1" source="L9C_kSaaTyOEswqFfBs4-14">
          <mxGeometry width="50" height="50" relative="1" as="geometry">
            <mxPoint x="260" y="360" as="sourcePoint" />
            <mxPoint x="310" y="320" as="targetPoint" />
          </mxGeometry>
        </mxCell>
        <mxCell id="L9C_kSaaTyOEswqFfBs4-22" value="CATEGORY DETAILS" style="rounded=0;whiteSpace=wrap;html=1;" vertex="1" parent="1">
          <mxGeometry x="730" y="130" width="120" height="60" as="geometry" />
        </mxCell>
        <mxCell id="L9C_kSaaTyOEswqFfBs4-27" style="edgeStyle=orthogonalEdgeStyle;rounded=0;orthogonalLoop=1;jettySize=auto;html=1;" edge="1" parent="1" source="L9C_kSaaTyOEswqFfBs4-23" target="L9C_kSaaTyOEswqFfBs4-22">
          <mxGeometry relative="1" as="geometry" />
        </mxCell>
        <mxCell id="L9C_kSaaTyOEswqFfBs4-23" value="CATEGORY NAME" style="ellipse;whiteSpace=wrap;html=1;" vertex="1" parent="1">
          <mxGeometry x="880" y="240" width="120" height="80" as="geometry" />
        </mxCell>
        <mxCell id="L9C_kSaaTyOEswqFfBs4-28" style="edgeStyle=orthogonalEdgeStyle;rounded=0;orthogonalLoop=1;jettySize=auto;html=1;" edge="1" parent="1" source="L9C_kSaaTyOEswqFfBs4-24" target="L9C_kSaaTyOEswqFfBs4-22">
          <mxGeometry relative="1" as="geometry" />
        </mxCell>
        <mxCell id="L9C_kSaaTyOEswqFfBs4-24" value="CATEGORY ID" style="ellipse;whiteSpace=wrap;html=1;" vertex="1" parent="1">
          <mxGeometry x="730" y="10" width="120" height="80" as="geometry" />
        </mxCell>
        <mxCell id="L9C_kSaaTyOEswqFfBs4-26" style="edgeStyle=orthogonalEdgeStyle;rounded=0;orthogonalLoop=1;jettySize=auto;html=1;entryX=1;entryY=0.5;entryDx=0;entryDy=0;" edge="1" parent="1" source="L9C_kSaaTyOEswqFfBs4-25" target="L9C_kSaaTyOEswqFfBs4-22">
          <mxGeometry relative="1" as="geometry" />
        </mxCell>
        <mxCell id="L9C_kSaaTyOEswqFfBs4-25" value="CATEGORY DESCRIPTION" style="ellipse;whiteSpace=wrap;html=1;" vertex="1" parent="1">
          <mxGeometry x="920" y="120" width="120" height="80" as="geometry" />
        </mxCell>
        <mxCell id="L9C_kSaaTyOEswqFfBs4-31" style="edgeStyle=orthogonalEdgeStyle;rounded=0;orthogonalLoop=1;jettySize=auto;html=1;" edge="1" parent="1" source="L9C_kSaaTyOEswqFfBs4-29" target="L9C_kSaaTyOEswqFfBs4-22">
          <mxGeometry relative="1" as="geometry" />
        </mxCell>
        <mxCell id="L9C_kSaaTyOEswqFfBs4-29" value="CONTAINS" style="rhombus;whiteSpace=wrap;html=1;" vertex="1" parent="1">
          <mxGeometry x="580" y="130" width="80" height="80" as="geometry" />
        </mxCell>
        <mxCell id="L9C_kSaaTyOEswqFfBs4-32" value="1" style="text;html=1;align=center;verticalAlign=middle;whiteSpace=wrap;rounded=0;" vertex="1" parent="1">
          <mxGeometry x="680" y="140" width="60" height="30" as="geometry" />
        </mxCell>
        <mxCell id="L9C_kSaaTyOEswqFfBs4-33" value="N" style="text;html=1;align=center;verticalAlign=middle;whiteSpace=wrap;rounded=0;" vertex="1" parent="1">
          <mxGeometry x="480" y="150" width="60" height="30" as="geometry" />
        </mxCell>
        <mxCell id="L9C_kSaaTyOEswqFfBs4-88" style="edgeStyle=orthogonalEdgeStyle;rounded=0;orthogonalLoop=1;jettySize=auto;html=1;entryX=0.5;entryY=1;entryDx=0;entryDy=0;" edge="1" parent="1" source="L9C_kSaaTyOEswqFfBs4-34" target="L9C_kSaaTyOEswqFfBs4-83">
          <mxGeometry relative="1" as="geometry" />
        </mxCell>
        <mxCell id="L9C_kSaaTyOEswqFfBs4-34" value="MEMBER" style="rounded=0;whiteSpace=wrap;html=1;" vertex="1" parent="1">
          <mxGeometry x="410" y="980" width="120" height="60" as="geometry" />
        </mxCell>
        <mxCell id="L9C_kSaaTyOEswqFfBs4-35" value="MEMBER ID" style="ellipse;whiteSpace=wrap;html=1;" vertex="1" parent="1">
          <mxGeometry x="250" y="1110" width="120" height="80" as="geometry" />
        </mxCell>
        <mxCell id="L9C_kSaaTyOEswqFfBs4-36" value="MEMBER NAME" style="ellipse;whiteSpace=wrap;html=1;" vertex="1" parent="1">
          <mxGeometry x="390" y="1110" width="120" height="80" as="geometry" />
        </mxCell>
        <mxCell id="L9C_kSaaTyOEswqFfBs4-37" value="GOLD MEMBER&lt;div&gt;(BOOL)&lt;/div&gt;" style="ellipse;whiteSpace=wrap;html=1;" vertex="1" parent="1">
          <mxGeometry x="530" y="1120" width="120" height="80" as="geometry" />
        </mxCell>
        <mxCell id="L9C_kSaaTyOEswqFfBs4-38" value="" style="endArrow=classic;html=1;rounded=0;exitX=0.5;exitY=0;exitDx=0;exitDy=0;entryX=1;entryY=1;entryDx=0;entryDy=0;" edge="1" parent="1" source="L9C_kSaaTyOEswqFfBs4-37" target="L9C_kSaaTyOEswqFfBs4-34">
          <mxGeometry width="50" height="50" relative="1" as="geometry">
            <mxPoint x="680" y="750" as="sourcePoint" />
            <mxPoint x="730" y="700" as="targetPoint" />
          </mxGeometry>
        </mxCell>
        <mxCell id="L9C_kSaaTyOEswqFfBs4-40" value="" style="endArrow=classic;html=1;rounded=0;exitX=0.5;exitY=0;exitDx=0;exitDy=0;entryX=0.5;entryY=1;entryDx=0;entryDy=0;" edge="1" parent="1" source="L9C_kSaaTyOEswqFfBs4-36" target="L9C_kSaaTyOEswqFfBs4-34">
          <mxGeometry width="50" height="50" relative="1" as="geometry">
            <mxPoint x="680" y="750" as="sourcePoint" />
            <mxPoint x="730" y="700" as="targetPoint" />
          </mxGeometry>
        </mxCell>
        <mxCell id="L9C_kSaaTyOEswqFfBs4-41" value="" style="endArrow=classic;html=1;rounded=0;exitX=0.5;exitY=0;exitDx=0;exitDy=0;entryX=0.167;entryY=1;entryDx=0;entryDy=0;entryPerimeter=0;" edge="1" parent="1" source="L9C_kSaaTyOEswqFfBs4-35" target="L9C_kSaaTyOEswqFfBs4-34">
          <mxGeometry width="50" height="50" relative="1" as="geometry">
            <mxPoint x="680" y="750" as="sourcePoint" />
            <mxPoint x="730" y="700" as="targetPoint" />
          </mxGeometry>
        </mxCell>
        <mxCell id="L9C_kSaaTyOEswqFfBs4-42" value="DEPENDANT" style="rounded=0;whiteSpace=wrap;html=1;" vertex="1" parent="1">
          <mxGeometry x="940" y="860" width="120" height="60" as="geometry" />
        </mxCell>
        <mxCell id="L9C_kSaaTyOEswqFfBs4-43" value="DEPENDANT ID" style="ellipse;whiteSpace=wrap;html=1;" vertex="1" parent="1">
          <mxGeometry x="870" y="1030" width="120" height="80" as="geometry" />
        </mxCell>
        <mxCell id="L9C_kSaaTyOEswqFfBs4-44" value="DEPENDANT NAME" style="ellipse;whiteSpace=wrap;html=1;" vertex="1" parent="1">
          <mxGeometry x="1010" y="1040" width="120" height="80" as="geometry" />
        </mxCell>
        <mxCell id="L9C_kSaaTyOEswqFfBs4-45" value="MEMBER OF DEPENDANT" style="ellipse;whiteSpace=wrap;html=1;" vertex="1" parent="1">
          <mxGeometry x="1190" y="1050" width="120" height="80" as="geometry" />
        </mxCell>
        <mxCell id="L9C_kSaaTyOEswqFfBs4-46" value="" style="endArrow=classic;html=1;rounded=0;exitX=0.5;exitY=0;exitDx=0;exitDy=0;" edge="1" parent="1" source="L9C_kSaaTyOEswqFfBs4-43" target="L9C_kSaaTyOEswqFfBs4-42">
          <mxGeometry width="50" height="50" relative="1" as="geometry">
            <mxPoint x="880" y="630" as="sourcePoint" />
            <mxPoint x="930" y="580" as="targetPoint" />
          </mxGeometry>
        </mxCell>
        <mxCell id="L9C_kSaaTyOEswqFfBs4-47" value="" style="endArrow=classic;html=1;rounded=0;entryX=0.5;entryY=1;entryDx=0;entryDy=0;" edge="1" parent="1" source="L9C_kSaaTyOEswqFfBs4-44" target="L9C_kSaaTyOEswqFfBs4-42">
          <mxGeometry width="50" height="50" relative="1" as="geometry">
            <mxPoint x="880" y="630" as="sourcePoint" />
            <mxPoint x="930" y="580" as="targetPoint" />
          </mxGeometry>
        </mxCell>
        <mxCell id="L9C_kSaaTyOEswqFfBs4-48" value="" style="endArrow=classic;html=1;rounded=0;exitX=0.598;exitY=-0.004;exitDx=0;exitDy=0;exitPerimeter=0;" edge="1" parent="1" source="L9C_kSaaTyOEswqFfBs4-45" target="L9C_kSaaTyOEswqFfBs4-42">
          <mxGeometry width="50" height="50" relative="1" as="geometry">
            <mxPoint x="880" y="630" as="sourcePoint" />
            <mxPoint x="1060" y="640" as="targetPoint" />
          </mxGeometry>
        </mxCell>
        <mxCell id="L9C_kSaaTyOEswqFfBs4-51" style="edgeStyle=orthogonalEdgeStyle;rounded=0;orthogonalLoop=1;jettySize=auto;html=1;" edge="1" parent="1" source="L9C_kSaaTyOEswqFfBs4-49" target="L9C_kSaaTyOEswqFfBs4-42">
          <mxGeometry relative="1" as="geometry" />
        </mxCell>
        <mxCell id="L9C_kSaaTyOEswqFfBs4-49" value="&amp;nbsp;SHARES" style="rhombus;whiteSpace=wrap;html=1;" vertex="1" parent="1">
          <mxGeometry x="710" y="830" width="80" height="80" as="geometry" />
        </mxCell>
        <mxCell id="L9C_kSaaTyOEswqFfBs4-50" style="edgeStyle=orthogonalEdgeStyle;rounded=0;orthogonalLoop=1;jettySize=auto;html=1;entryX=0.101;entryY=0.685;entryDx=0;entryDy=0;entryPerimeter=0;" edge="1" parent="1" source="L9C_kSaaTyOEswqFfBs4-34" target="L9C_kSaaTyOEswqFfBs4-49">
          <mxGeometry relative="1" as="geometry" />
        </mxCell>
        <mxCell id="L9C_kSaaTyOEswqFfBs4-52" value="1" style="text;html=1;align=center;verticalAlign=middle;whiteSpace=wrap;rounded=0;" vertex="1" parent="1">
          <mxGeometry x="520" y="980" width="60" height="30" as="geometry" />
        </mxCell>
        <mxCell id="L9C_kSaaTyOEswqFfBs4-53" value="N" style="text;html=1;align=center;verticalAlign=middle;whiteSpace=wrap;rounded=0;" vertex="1" parent="1">
          <mxGeometry x="890" y="860" width="60" height="30" as="geometry" />
        </mxCell>
        <mxCell id="L9C_kSaaTyOEswqFfBs4-54" value="RENTALS" style="rounded=0;whiteSpace=wrap;html=1;" vertex="1" parent="1">
          <mxGeometry x="620" y="580" width="120" height="60" as="geometry" />
        </mxCell>
        <mxCell id="L9C_kSaaTyOEswqFfBs4-56" value="RENTAL ID" style="ellipse;whiteSpace=wrap;html=1;" vertex="1" parent="1">
          <mxGeometry x="510" y="480" width="120" height="80" as="geometry" />
        </mxCell>
        <mxCell id="L9C_kSaaTyOEswqFfBs4-57" value="RENTED BY" style="ellipse;whiteSpace=wrap;html=1;" vertex="1" parent="1">
          <mxGeometry x="800" y="500" width="120" height="80" as="geometry" />
        </mxCell>
        <mxCell id="L9C_kSaaTyOEswqFfBs4-59" value="RENTER ID" style="ellipse;whiteSpace=wrap;html=1;" vertex="1" parent="1">
          <mxGeometry x="650" y="450" width="120" height="80" as="geometry" />
        </mxCell>
        <mxCell id="L9C_kSaaTyOEswqFfBs4-60" value="MOVIE ID" style="ellipse;whiteSpace=wrap;html=1;" vertex="1" parent="1">
          <mxGeometry x="850" y="620" width="120" height="80" as="geometry" />
        </mxCell>
        <mxCell id="L9C_kSaaTyOEswqFfBs4-61" value="RENTED ON" style="ellipse;whiteSpace=wrap;html=1;" vertex="1" parent="1">
          <mxGeometry x="400" y="600" width="120" height="80" as="geometry" />
        </mxCell>
        <mxCell id="L9C_kSaaTyOEswqFfBs4-63" value="" style="endArrow=classic;html=1;rounded=0;exitX=1;exitY=0.5;exitDx=0;exitDy=0;entryX=0;entryY=0.5;entryDx=0;entryDy=0;" edge="1" parent="1" source="L9C_kSaaTyOEswqFfBs4-61" target="L9C_kSaaTyOEswqFfBs4-54">
          <mxGeometry width="50" height="50" relative="1" as="geometry">
            <mxPoint x="710" y="830" as="sourcePoint" />
            <mxPoint x="760" y="780" as="targetPoint" />
          </mxGeometry>
        </mxCell>
        <mxCell id="L9C_kSaaTyOEswqFfBs4-64" value="" style="endArrow=classic;html=1;rounded=0;exitX=0;exitY=0.5;exitDx=0;exitDy=0;entryX=1;entryY=0.25;entryDx=0;entryDy=0;" edge="1" parent="1" source="L9C_kSaaTyOEswqFfBs4-60" target="L9C_kSaaTyOEswqFfBs4-54">
          <mxGeometry width="50" height="50" relative="1" as="geometry">
            <mxPoint x="710" y="830" as="sourcePoint" />
            <mxPoint x="760" y="780" as="targetPoint" />
          </mxGeometry>
        </mxCell>
        <mxCell id="L9C_kSaaTyOEswqFfBs4-65" value="" style="endArrow=classic;html=1;rounded=0;exitX=0.049;exitY=0.713;exitDx=0;exitDy=0;exitPerimeter=0;entryX=1;entryY=0;entryDx=0;entryDy=0;" edge="1" parent="1" source="L9C_kSaaTyOEswqFfBs4-57" target="L9C_kSaaTyOEswqFfBs4-54">
          <mxGeometry width="50" height="50" relative="1" as="geometry">
            <mxPoint x="720" y="840" as="sourcePoint" />
            <mxPoint x="770" y="790" as="targetPoint" />
          </mxGeometry>
        </mxCell>
        <mxCell id="L9C_kSaaTyOEswqFfBs4-66" value="" style="endArrow=classic;html=1;rounded=0;exitX=0.5;exitY=1;exitDx=0;exitDy=0;entryX=0.75;entryY=0;entryDx=0;entryDy=0;" edge="1" parent="1" source="L9C_kSaaTyOEswqFfBs4-59" target="L9C_kSaaTyOEswqFfBs4-54">
          <mxGeometry width="50" height="50" relative="1" as="geometry">
            <mxPoint x="730" y="850" as="sourcePoint" />
            <mxPoint x="780" y="800" as="targetPoint" />
          </mxGeometry>
        </mxCell>
        <mxCell id="L9C_kSaaTyOEswqFfBs4-67" value="" style="endArrow=classic;html=1;rounded=0;exitX=1;exitY=1;exitDx=0;exitDy=0;entryX=0.25;entryY=0;entryDx=0;entryDy=0;" edge="1" parent="1" source="L9C_kSaaTyOEswqFfBs4-56" target="L9C_kSaaTyOEswqFfBs4-54">
          <mxGeometry width="50" height="50" relative="1" as="geometry">
            <mxPoint x="740" y="860" as="sourcePoint" />
            <mxPoint x="790" y="810" as="targetPoint" />
          </mxGeometry>
        </mxCell>
        <mxCell id="L9C_kSaaTyOEswqFfBs4-68" value="FAVOURITE MOVIE CATEGORY" style="ellipse;whiteSpace=wrap;html=1;" vertex="1" parent="1">
          <mxGeometry x="120" y="1040" width="120" height="80" as="geometry" />
        </mxCell>
        <mxCell id="L9C_kSaaTyOEswqFfBs4-69" value="" style="endArrow=classic;html=1;rounded=0;exitX=1.058;exitY=0.338;exitDx=0;exitDy=0;exitPerimeter=0;entryX=0;entryY=0.5;entryDx=0;entryDy=0;" edge="1" parent="1" source="L9C_kSaaTyOEswqFfBs4-68" target="L9C_kSaaTyOEswqFfBs4-34">
          <mxGeometry width="50" height="50" relative="1" as="geometry">
            <mxPoint x="710" y="990" as="sourcePoint" />
            <mxPoint x="760" y="940" as="targetPoint" />
          </mxGeometry>
        </mxCell>
        <mxCell id="L9C_kSaaTyOEswqFfBs4-72" style="edgeStyle=orthogonalEdgeStyle;rounded=0;orthogonalLoop=1;jettySize=auto;html=1;entryX=0;entryY=1;entryDx=0;entryDy=0;" edge="1" parent="1" source="L9C_kSaaTyOEswqFfBs4-70" target="L9C_kSaaTyOEswqFfBs4-54">
          <mxGeometry relative="1" as="geometry" />
        </mxCell>
        <mxCell id="L9C_kSaaTyOEswqFfBs4-70" value="RENTED" style="rhombus;whiteSpace=wrap;html=1;" vertex="1" parent="1">
          <mxGeometry x="210" y="700" width="80" height="80" as="geometry" />
        </mxCell>
        <mxCell id="L9C_kSaaTyOEswqFfBs4-71" value="" style="endArrow=classic;html=1;rounded=0;" edge="1" parent="1" source="L9C_kSaaTyOEswqFfBs4-1" target="L9C_kSaaTyOEswqFfBs4-70">
          <mxGeometry width="50" height="50" relative="1" as="geometry">
            <mxPoint x="710" y="490" as="sourcePoint" />
            <mxPoint x="760" y="440" as="targetPoint" />
          </mxGeometry>
        </mxCell>
        <mxCell id="L9C_kSaaTyOEswqFfBs4-73" value="1" style="text;html=1;align=center;verticalAlign=middle;whiteSpace=wrap;rounded=0;" vertex="1" parent="1">
          <mxGeometry x="380" y="230" width="60" height="30" as="geometry" />
        </mxCell>
        <mxCell id="L9C_kSaaTyOEswqFfBs4-75" value="N" style="text;html=1;align=center;verticalAlign=middle;whiteSpace=wrap;rounded=0;" vertex="1" parent="1">
          <mxGeometry x="580" y="645" width="60" height="30" as="geometry" />
        </mxCell>
        <mxCell id="L9C_kSaaTyOEswqFfBs4-76" value="RENT" style="rhombus;whiteSpace=wrap;html=1;" vertex="1" parent="1">
          <mxGeometry x="810" y="740" width="80" height="80" as="geometry" />
        </mxCell>
        <mxCell id="L9C_kSaaTyOEswqFfBs4-79" value="" style="endArrow=classic;html=1;rounded=0;exitX=0.5;exitY=0;exitDx=0;exitDy=0;entryX=1;entryY=0.5;entryDx=0;entryDy=0;" edge="1" parent="1" source="L9C_kSaaTyOEswqFfBs4-42" target="L9C_kSaaTyOEswqFfBs4-76">
          <mxGeometry width="50" height="50" relative="1" as="geometry">
            <mxPoint x="710" y="990" as="sourcePoint" />
            <mxPoint x="760" y="940" as="targetPoint" />
          </mxGeometry>
        </mxCell>
        <mxCell id="L9C_kSaaTyOEswqFfBs4-80" value="" style="endArrow=classic;html=1;rounded=0;exitX=0;exitY=0.5;exitDx=0;exitDy=0;" edge="1" parent="1" source="L9C_kSaaTyOEswqFfBs4-76" target="L9C_kSaaTyOEswqFfBs4-54">
          <mxGeometry width="50" height="50" relative="1" as="geometry">
            <mxPoint x="710" y="990" as="sourcePoint" />
            <mxPoint x="760" y="940" as="targetPoint" />
          </mxGeometry>
        </mxCell>
        <mxCell id="L9C_kSaaTyOEswqFfBs4-81" value="1" style="text;html=1;align=center;verticalAlign=middle;whiteSpace=wrap;rounded=0;" vertex="1" parent="1">
          <mxGeometry x="970" y="830" width="60" height="30" as="geometry" />
        </mxCell>
        <mxCell id="L9C_kSaaTyOEswqFfBs4-82" value="1" style="text;html=1;align=center;verticalAlign=middle;whiteSpace=wrap;rounded=0;" vertex="1" parent="1">
          <mxGeometry x="720" y="650" width="60" height="30" as="geometry" />
        </mxCell>
        <mxCell id="L9C_kSaaTyOEswqFfBs4-83" value="BRONZE RENTALS" style="rhombus;whiteSpace=wrap;html=1;" vertex="1" parent="1">
          <mxGeometry x="410" y="810" width="80" height="80" as="geometry" />
        </mxCell>
        <mxCell id="L9C_kSaaTyOEswqFfBs4-86" value="" style="endArrow=none;html=1;rounded=0;exitX=0.5;exitY=0;exitDx=0;exitDy=0;" edge="1" parent="1" source="L9C_kSaaTyOEswqFfBs4-83">
          <mxGeometry width="50" height="50" relative="1" as="geometry">
            <mxPoint x="710" y="830" as="sourcePoint" />
            <mxPoint x="650" y="770" as="targetPoint" />
          </mxGeometry>
        </mxCell>
        <mxCell id="L9C_kSaaTyOEswqFfBs4-87" value="" style="endArrow=classic;html=1;rounded=0;entryX=0.25;entryY=1;entryDx=0;entryDy=0;" edge="1" parent="1" target="L9C_kSaaTyOEswqFfBs4-54">
          <mxGeometry width="50" height="50" relative="1" as="geometry">
            <mxPoint x="650" y="770" as="sourcePoint" />
            <mxPoint x="760" y="780" as="targetPoint" />
          </mxGeometry>
        </mxCell>
        <mxCell id="L9C_kSaaTyOEswqFfBs4-89" value="1" style="text;html=1;align=center;verticalAlign=middle;whiteSpace=wrap;rounded=0;" vertex="1" parent="1">
          <mxGeometry x="420" y="950" width="60" height="30" as="geometry" />
        </mxCell>
        <mxCell id="L9C_kSaaTyOEswqFfBs4-91" value="1" style="text;html=1;align=center;verticalAlign=middle;whiteSpace=wrap;rounded=0;" vertex="1" parent="1">
          <mxGeometry x="630" y="650" width="60" height="30" as="geometry" />
        </mxCell>
        <mxCell id="L9C_kSaaTyOEswqFfBs4-94" value="GOLDEN RENTALS" style="rhombus;whiteSpace=wrap;html=1;" vertex="1" parent="1">
          <mxGeometry x="570" y="835" width="80" height="80" as="geometry" />
        </mxCell>
        <mxCell id="L9C_kSaaTyOEswqFfBs4-95" value="" style="endArrow=classic;html=1;rounded=0;exitX=0.5;exitY=0;exitDx=0;exitDy=0;entryX=0;entryY=0.5;entryDx=0;entryDy=0;" edge="1" parent="1" source="L9C_kSaaTyOEswqFfBs4-34" target="L9C_kSaaTyOEswqFfBs4-94">
          <mxGeometry width="50" height="50" relative="1" as="geometry">
            <mxPoint x="710" y="830" as="sourcePoint" />
            <mxPoint x="760" y="780" as="targetPoint" />
          </mxGeometry>
        </mxCell>
        <mxCell id="L9C_kSaaTyOEswqFfBs4-96" value="" style="endArrow=none;html=1;rounded=0;exitX=0.5;exitY=0;exitDx=0;exitDy=0;" edge="1" parent="1" source="L9C_kSaaTyOEswqFfBs4-94">
          <mxGeometry width="50" height="50" relative="1" as="geometry">
            <mxPoint x="710" y="830" as="sourcePoint" />
            <mxPoint x="720" y="750" as="targetPoint" />
          </mxGeometry>
        </mxCell>
        <mxCell id="L9C_kSaaTyOEswqFfBs4-97" value="" style="endArrow=classic;html=1;rounded=0;entryX=1;entryY=0;entryDx=0;entryDy=0;" edge="1" parent="1" target="L9C_kSaaTyOEswqFfBs4-91">
          <mxGeometry width="50" height="50" relative="1" as="geometry">
            <mxPoint x="720" y="750" as="sourcePoint" />
            <mxPoint x="760" y="780" as="targetPoint" />
          </mxGeometry>
        </mxCell>
        <mxCell id="L9C_kSaaTyOEswqFfBs4-98" value="1" style="text;html=1;align=center;verticalAlign=middle;whiteSpace=wrap;rounded=0;" vertex="1" parent="1">
          <mxGeometry x="480" y="950" width="60" height="30" as="geometry" />
        </mxCell>
        <mxCell id="L9C_kSaaTyOEswqFfBs4-99" value="N" style="text;html=1;align=center;verticalAlign=middle;whiteSpace=wrap;rounded=0;" vertex="1" parent="1">
          <mxGeometry x="680" y="680" width="60" height="30" as="geometry" />
        </mxCell>
      </root>
    </mxGraphModel>
  </diagram>
</mxfile>
